<?xml version="1.0" standalone="no"?>
<!DOCTYPE svg PUBLIC "-//W3C//DTD SVG 20010904//EN"
 "http://www.w3.org/TR/2001/REC-SVG-20010904/DTD/svg10.dtd">
<svg version="1.0" xmlns="http://www.w3.org/2000/svg"
 width="165.000000pt" height="165.000000pt" viewBox="0 0 165.000000 165.000000"
 preserveAspectRatio="xMidYMid meet">

<g transform="translate(0.000000,165.000000) scale(0.100000,-0.100000)"
fill="#000000" stroke="none">
<path d="M0 825 l0 -825 825 0 825 0 0 825 0 825 -825 0 -825 0 0 -825z m1381
15 c-1 -223 -1 -411 -1 -417 0 -10 -118 -13 -555 -13 l-555 0 0 420 0 420 556
-2 555 -3 0 -405z"/>
<path d="M310 830 l0 -380 515 0 515 0 -2 378 -3 377 -512 3 -513 2 0 -380z
m305 322 c-3 -3 -11 0 -18 7 -9 10 -8 11 6 5 10 -3 15 -9 12 -12z m125 -29
c25 -4 50 -7 55 -7 6 0 25 -11 44 -25 19 -14 31 -19 27 -13 -5 8 -2 10 8 6 9
-3 14 -11 13 -17 -1 -7 5 -10 13 -9 8 2 12 1 8 -3 -3 -4 9 -27 28 -52 19 -24
34 -53 34 -64 0 -11 3 -18 8 -16 7 5 8 -150 0 -188 -2 -11 -10 -31 -17 -45 -8
-14 -14 -27 -14 -30 1 -21 -60 -75 -115 -102 -65 -32 -69 -33 -236 -38 -94 -3
-177 -4 -183 -2 -9 3 -12 22 -10 56 2 49 3 51 32 51 l30 1 3 201 2 202 -22 -1
c-45 -2 -48 1 -48 45 0 24 4 47 9 53 11 10 261 8 331 -3z m495 -23 c17 -16 24
-18 28 -8 5 14 6 4 7 -81 0 -30 -4 -59 -10 -65 -14 -14 -13 -29 2 -20 7 4 8 3
4 -5 -4 -6 -12 -9 -17 -6 -5 4 -19 -1 -31 -9 -16 -11 -46 -16 -100 -16 -77 0
-78 0 -78 25 0 14 6 25 13 25 10 0 14 20 15 70 1 56 -1 70 -13 70 -9 0 -15 9
-15 24 0 21 6 25 33 28 60 6 138 -10 162 -32z m40 -261 c13 -21 -2 -23 -152
-20 -67 1 -83 4 -83 16 0 12 19 15 114 15 71 0 117 -4 121 -11z"/>
<path d="M572 826 l3 -201 55 3 c30 1 70 2 88 2 37 1 100 29 121 54 8 9 10 16
5 16 -4 0 -1 6 8 12 37 30 48 118 23 189 -17 46 -62 102 -77 93 -4 -3 -8 -1
-8 5 0 16 -69 30 -148 29 l-73 -1 3 -201z"/>
<path d="M1118 1035 c-1 -22 -2 -52 0 -67 3 -24 8 -28 36 -28 40 0 72 30 53
49 -9 10 -8 11 8 5 18 -7 19 -6 5 11 -9 11 -10 16 -2 11 21 -13 13 14 -13 40
-17 16 -34 24 -54 22 -27 -2 -30 -6 -33 -43z"/>
</g>
</svg>
